<?xml version="1.0" encoding="UTF-8"?>
<!DOCTYPE svg PUBLIC "-//W3C//DTD SVG 1.1//EN" "http://www.w3.org/Graphics/SVG/1.1/DTD/svg11.dtd">
<!-- Creator: CorelDRAW -->
<svg xmlns="http://www.w3.org/2000/svg" xml:space="preserve" width="1054.1mm" height="622.3mm" style="shape-rendering:geometricPrecision; text-rendering:geometricPrecision; image-rendering:optimizeQuality; fill-rule:evenodd; clip-rule:evenodd"
viewBox="0 0 1054.1 622.3"
 xmlns:xlink="http://www.w3.org/1999/xlink"
 sodipodi:role="line"
 xmlns:dc="http://purl.org/dc/elements/1.1/"
 xmlns:cc="http://web.resource.org/cc/"
 xmlns:rdf="http://www.w3.org/1999/02/22-rdf-syntax-ns#"
 xmlns:svg="http://www.w3.org/2000/svg"
 xmlns:sodipodi="http://sodipodi.sourceforge.net/DTD/sodipodi-0.dtd"
 xmlns:inkscape="http://www.inkscape.org/namespaces/inkscape"
 sodipodi:version="0.32"
 inkscape:version="0.45.1"
 sodipodi:docname="cirillico.svg"
 inkscape:output_extension="org.inkscape.output.svg.inkscape"
 sodipodi:docbase="C:\Documents and Settings\Flanker\Desktop"
 version="1.0">
 <defs>
  <style type="text/css">
   <![CDATA[
    .str0 {stroke:#B3B3B3;stroke-width:3.9687;stroke-linecap:round;stroke-linejoin:round}
    .fil0 {fill:#C0A062}
    .fil1 {fill:#0A0B0C;fill-rule:nonzero}
   ]]>
  </style>
 </defs>
 <g id="Layer_x0020_1">
  <metadata id="CorelCorpID_0Corel-Layer"/>
  <path id="path3164" class="fil0 str0" d="M-0.1346 24.3175l1053.4 0m-1053.4 574.191l1053.4 0m-1053.4 -458.454l1053.4 0m-1053.4 345.555l1053.4 0m-1053.4 -362.569l1053.4 0m-1053.4 0l0 0 0 0z"/>
  <sodipodi:namedview inkscape:window-height="1005" inkscape:window-width="1280" inkscape:pageshadow="2" inkscape:pageopacity="0.0" guidetolerance="10.0" gridtolerance="10.0" objecttolerance="10.0" borderopacity="1.0" bordercolor="#666666" pagecolor="#ffffff" id="base" inkscape:zoom="0.09973684" inkscape:cx="2328.5853" inkscape:cy="1773.8148" inkscape:window-x="-4" inkscape:window-y="-4" inkscape:current-layer="svg2" width="4000px" height="2300px" inkscape:showpageshadow="false"/>
  <sodipodi:namedview inkscape:window-height="1005" inkscape:window-width="1280" inkscape:pageshadow="2" inkscape:pageopacity="0.0" guidetolerance="10.0" gridtolerance="10.0" objecttolerance="10.0" borderopacity="1.0" bordercolor="#666666" pagecolor="#ffffff" id="base" inkscape:zoom="0.09973684" inkscape:cx="2328.5853" inkscape:cy="1773.8148" inkscape:window-x="-4" inkscape:window-y="-4" inkscape:current-layer="svg2" width="4000px" height="2300px" inkscape:showpageshadow="false"/>
  <sodipodi:namedview inkscape:window-height="1005" inkscape:window-width="1280" inkscape:pageshadow="2" inkscape:pageopacity="0.0" guidetolerance="10.0" gridtolerance="10.0" objecttolerance="10.0" borderopacity="1.0" bordercolor="#666666" pagecolor="#ffffff" id="base" inkscape:zoom="0.09973684" inkscape:cx="2328.5853" inkscape:cy="1773.8148" inkscape:window-x="-4" inkscape:window-y="-4" inkscape:current-layer="svg2" width="4000px" height="2300px" inkscape:showpageshadow="false"/>
  <sodipodi:namedview inkscape:window-height="1005" inkscape:window-width="1280" inkscape:pageshadow="2" inkscape:pageopacity="0.0" guidetolerance="10.0" gridtolerance="10.0" objecttolerance="10.0" borderopacity="1.0" bordercolor="#666666" pagecolor="#ffffff" id="base" inkscape:zoom="0.09973684" inkscape:cx="2328.5853" inkscape:cy="1773.8148" inkscape:window-x="-4" inkscape:window-y="-4" inkscape:current-layer="svg2" width="4000px" height="2300px" inkscape:showpageshadow="false"/>
  <sodipodi:namedview inkscape:window-height="1005" inkscape:window-width="1280" inkscape:pageshadow="2" inkscape:pageopacity="0.0" guidetolerance="10.0" gridtolerance="10.0" objecttolerance="10.0" borderopacity="1.0" bordercolor="#666666" pagecolor="#ffffff" id="base" inkscape:zoom="0.09973684" inkscape:cx="2328.5853" inkscape:cy="1773.8148" inkscape:window-x="-4" inkscape:window-y="-4" inkscape:current-layer="svg2" width="4000px" height="2300px" inkscape:showpageshadow="false"/>
  <sodipodi:namedview inkscape:window-height="1005" inkscape:window-width="1280" inkscape:pageshadow="2" inkscape:pageopacity="0.0" guidetolerance="10.0" gridtolerance="10.0" objecttolerance="10.0" borderopacity="1.0" bordercolor="#666666" pagecolor="#ffffff" id="base" inkscape:zoom="0.09973684" inkscape:cx="2328.5853" inkscape:cy="1773.8148" inkscape:window-x="-4" inkscape:window-y="-4" inkscape:current-layer="svg2" width="4000px" height="2300px" inkscape:showpageshadow="false"/>
  <sodipodi:namedview inkscape:window-height="1005" inkscape:window-width="1280" inkscape:pageshadow="2" inkscape:pageopacity="0.0" guidetolerance="10.0" gridtolerance="10.0" objecttolerance="10.0" borderopacity="1.0" bordercolor="#666666" pagecolor="#ffffff" id="base" inkscape:zoom="0.09973684" inkscape:cx="2328.5853" inkscape:cy="1773.8148" inkscape:window-x="-4" inkscape:window-y="-4" inkscape:current-layer="svg2" width="4000px" height="2300px" inkscape:showpageshadow="false"/>
  <sodipodi:namedview inkscape:window-height="1005" inkscape:window-width="1280" inkscape:pageshadow="2" inkscape:pageopacity="0.0" guidetolerance="10.0" gridtolerance="10.0" objecttolerance="10.0" borderopacity="1.0" bordercolor="#666666" pagecolor="#ffffff" id="base" inkscape:zoom="0.09973684" inkscape:cx="2328.5853" inkscape:cy="1773.8148" inkscape:window-x="-4" inkscape:window-y="-4" inkscape:current-layer="svg2" width="4000px" height="2300px" inkscape:showpageshadow="false"/>
  <path class="fil1" d="M375.133 202.88l-0.004 91.998 14.023 0c42.8625,0 74.3479,2.734 94.5444,8.2021 20.1083,5.3799 36.5125,15.7868 49.2125,31.1326 12.7,15.3459 18.9618,33.7785 18.9618,55.298 0,26.0173 -9.6132,48.7715 -28.9278,68.4389 -19.3145,19.6673 -52.5639,29.4569 -99.7479,29.4569l-148.255 0 0 -9.525c21.6958,-0.7056 35.4975,-4.1885 41.5395,-10.4069 6.0408,-6.2173 9.0838,-20.8141 9.0841,-43.9209l0.004 -220.674 -42.157 0c-16.3159,0 -27.9778,1.1772 -34.8368,3.6159 -9.0164,3.2058 -16.6687,9.6132 -23.0187,18.8737 -6.35,9.3486 -10.1424,21.8722 -11.3771,37.7472l-9.7896 0 4.1451 -82.1972 116.066 0.0001c-1.3259,-11.8287 -4.042,-19.8044 -8.1201,-23.9778 -6.0153,-6.1557 -19.8437,-9.6132 -41.5395,-10.3187l0 -9.6132 150.901 0 0 9.6132c-21.6959,0.7055 -35.6306,4.1452 -41.6278,10.3187 -4.0375,4.1563 -6.7553,12.1461 -8.1008,23.9777l117.607 0 3.8806 82.1972 -9.8778 0c-1.8521,-14.4639 -4.4224,-24.776 -7.7611,-31.0445 -5.3043,-9.9591 -12.4256,-17.3045 -21.2549,-22.0486 -8.8977,-4.7808 -20.5494,-7.1437 -35.0132,-7.1437l-48.5603 0 0.0004 0.0003zm-0.004 263.624c15.1695,2.3813 26.9875,3.616 35.4542,3.616 21.1667,0 40.3049,-7.0556 57.5028,-21.2549 17.1097,-14.1111 25.6646,-33.6021 25.6646,-58.6493 0,-25.841 -8.9077,-44.9791 -26.8993,-57.4146 -17.9035,-12.5236 -40.5695,-18.7854 -68.1743,-18.7854 -7.7611,0 -15.6105,0.7056 -23.548,2.1167l0 150.372 0 -0.0005zm342.9 -110.331l29.457 -0.5292c70.2909,0 105.392,21.6958 105.392,65.0875 0,20.1965 -8.5548,36.3361 -25.6646,48.4187 -17.1097,12.1709 -41.8041,18.2563 -73.9951,18.2563l-113.683 0 0 -9.525c15.2577,0 25.0863,-2.8596 29.3688,-8.4667 4.2725,-5.5938 6.5303,-18.0798 6.5264,-37.5708 -0.0143,-70.5148 0.9783,-157.216 -0.1187,-227.714 -0.4597,-29.5014 -2.9643,-42.0585 -7.7216,-45.9367 -2.8184,-2.2975 -6.2618,-3.3514 -10.407,-3.3514 -4.7625,0 -10.8479,1.3229 -18.0798,4.1451l-3.616 -9.084 71.0847 -28.9278 11.6417 0 -0.1579 84.6293 -0.0275 150.569 0.0006 -0.0003zm0 110.86c9.1722,2.3812 18.2563,3.616 27.4285,3.616 17.1979,0 31.2208,-4.5862 41.9805,-13.7584 10.7598,-9.084 16.1396,-20.6375 16.1396,-34.5722 0,-33.0729 -23.0187,-49.6535 -68.968,-49.6535 -3.9688,0 -9.525,0.0882 -16.5806,0.2646l0 94.1035zm-121.179 -214.828l200.138 0.0173 10.4069 64.1174 -11.6417 0c-2.1166,-12.8764 -5.5262,-22.9513 -10.3187,-29.9861 -4.8204,-7.076 -10.4072,-11.7301 -16.5806,-13.9347 -6.1734,-2.2047 -16.7573,-3.3482 -31.75,-3.3514l-80.2813 -0.0173c-14.8163,-0.0032 -24.8576,0.9217 -30.2507,2.734 -5.3665,1.8034 -10.4662,6.1064 -15.3459,12.8764 -4.9098,6.8119 -9.084,17.3743 -12.5236,31.6618l-11.6416 0 9.7895 -64.1174 -0.0003 0z"/>
 </g>
</svg>
